<svg width="192" height="28" viewBox="0 0 192 28" fill="none" xmlns="http://www.w3.org/2000/svg">
<path d="M24.5804 0C24.2194 0.640884 23.8953 1.30387 23.6007 1.98158C20.8014 1.56169 17.9506 1.56169 15.1439 1.98158C14.8566 1.30387 14.5252 0.640884 14.1642 0C11.5344 0.449355 8.97083 1.23757 6.53989 2.34991C1.72221 9.48803 0.418339 16.442 1.06659 23.3002C3.88795 25.3849 7.04817 26.9761 10.4147 27.9926C11.1734 26.9761 11.8438 25.8932 12.4183 24.7661C11.3281 24.361 10.2747 23.8527 9.26549 23.2634C9.53068 23.0718 9.78851 22.8729 10.039 22.6814C15.9543 25.4659 22.8051 25.4659 28.7277 22.6814C28.9782 22.8877 29.236 23.0866 29.5012 23.2634C28.492 23.86 27.4386 24.361 26.341 24.7735C26.9156 25.9006 27.5859 26.9834 28.3447 28C31.7112 26.9834 34.8714 25.3996 37.6927 23.3149C38.4589 15.3591 36.3815 8.46409 32.2047 2.35727C29.7811 1.24494 27.2176 0.456722 24.5878 0.014733L24.5804 0ZM13.2434 19.0792C11.4239 19.0792 9.91374 17.4291 9.91374 15.3886C9.91374 13.3481 11.3649 11.6906 13.236 11.6906C15.1071 11.6906 16.5951 13.3554 16.5657 15.3886C16.5362 17.4217 15.0997 19.0792 13.2434 19.0792ZM25.5159 19.0792C23.6891 19.0792 22.1937 17.4291 22.1937 15.3886C22.1937 13.3481 23.6449 11.6906 25.5159 11.6906C27.387 11.6906 28.8677 13.3554 28.8382 15.3886C28.8088 17.4217 27.3723 19.0792 25.5159 19.0792ZM73.4149 5.11234C71.5806 4.28729 69.3412 3.87477 66.6893 3.87477H55.6985V23.6096H65.9011C68.774 23.6096 71.1828 23.1676 73.1276 22.2836C74.9029 21.547 76.413 20.2947 77.4738 18.6888C78.4241 17.1713 78.9177 15.4107 78.8956 13.6206C78.925 11.8379 78.4536 10.0847 77.5254 8.55985C76.5383 7.02026 75.1018 5.81215 73.4149 5.10497V5.11234ZM69.9084 17.2523C68.9508 18.1436 67.5806 18.593 65.7906 18.593H62.7482V8.89871H66.1884C67.9121 8.89871 69.2086 9.33333 70.0705 10.1805C70.9471 11.0939 71.4112 12.3315 71.3523 13.6059C71.4186 14.9761 70.8956 16.302 69.9158 17.2597L69.9084 17.2523ZM107.308 15.0718C108.207 15.8748 108.656 17.0534 108.664 18.6077C108.693 20.2652 107.838 21.8195 106.417 22.6814C104.936 23.6759 102.815 24.1768 100.059 24.1694C98.4757 24.1694 96.8992 23.9705 95.367 23.5801C93.9158 23.2192 92.5309 22.6372 91.2491 21.8637V17.186C92.3689 17.9963 93.6212 18.593 94.9545 18.9466C96.4131 19.3886 97.9305 19.6243 99.4554 19.6317C99.9784 19.6611 100.509 19.5654 100.995 19.3665C101.341 19.1897 101.511 18.9613 101.511 18.733C101.518 18.4678 101.415 18.2173 101.231 18.0258C100.907 17.7827 100.531 17.6133 100.133 17.547L96.7519 16.7882C94.8145 16.3389 93.437 15.7127 92.6267 14.9171C91.8016 14.0847 91.3596 12.9429 91.4186 11.7716C91.4038 10.7256 91.7869 9.70903 92.4867 8.92818C93.3191 8.0442 94.3725 7.40332 95.5291 7.05709C97.0245 6.58564 98.5862 6.36464 100.155 6.39411C101.621 6.37937 103.08 6.5488 104.494 6.90239C105.643 7.17495 106.741 7.60958 107.765 8.1989V12.6262C106.807 12.0737 105.776 11.6464 104.708 11.3738C103.544 11.0645 102.343 10.9024 101.142 10.9024C99.3744 10.9024 98.4904 11.2044 98.4904 11.8011C98.4904 12.0737 98.6451 12.3241 98.8956 12.4346C99.3817 12.6409 99.8827 12.7882 100.398 12.8692L103.22 13.3775C105.047 13.7017 106.417 14.2615 107.315 15.0718H107.308ZM126.019 18.3278C126.844 18.0921 127.632 17.7532 128.369 17.326V22.3204C126.188 23.5875 123.699 24.2357 121.179 24.1842C119.161 24.2357 117.15 23.8306 115.315 22.9908C113.805 22.2983 112.538 21.1786 111.662 19.7716C110.844 18.3867 110.424 16.8103 110.454 15.2044C110.431 13.5985 110.873 12.0221 111.721 10.6667C112.627 9.28177 113.923 8.19153 115.441 7.52855C117.29 6.7256 119.286 6.33518 121.304 6.38674C124.126 6.38674 126.461 6.97606 128.325 8.16206V13.326C127.617 12.8471 126.844 12.4788 126.026 12.2284C125.113 11.9411 124.163 11.8011 123.205 11.8085C121.459 11.8085 120.089 12.1252 119.102 12.7661C117.717 13.5396 117.216 15.2928 117.989 16.6851C118.24 17.1344 118.616 17.5101 119.058 17.7753C120.015 18.4236 121.408 18.7477 123.227 18.7477C124.17 18.7477 125.105 18.6151 126.004 18.3425L126.019 18.3278ZM146.888 7.52118C143.183 6.01842 139.036 6.01842 135.33 7.52118C133.82 8.18416 132.538 9.26704 131.625 10.6372C130.763 11.9926 130.314 13.5617 130.343 15.1676C130.321 16.7882 130.77 18.3867 131.625 19.7643C132.531 21.1713 133.827 22.291 135.352 22.9834C139.036 24.5525 143.198 24.5525 146.881 22.9761C148.398 22.2836 149.687 21.1639 150.586 19.7569C151.433 18.372 151.875 16.7808 151.853 15.1602C151.883 13.5543 151.441 11.9779 150.586 10.6225C149.68 9.25967 148.398 8.1768 146.896 7.52118H146.888ZM143.912 17.9816C143.153 18.6961 142.137 19.0718 141.091 19.0055C140.052 19.0571 139.036 18.6888 138.269 17.9816C137.57 17.2523 137.194 16.2726 137.245 15.256C137.194 14.2541 137.57 13.2818 138.269 12.5672C139.036 11.8674 140.052 11.5138 141.091 11.5654C142.129 11.5064 143.146 11.8674 143.912 12.5672C144.619 13.2818 144.995 14.2541 144.943 15.256C144.988 16.2652 144.619 17.2523 143.912 17.9816ZM166.225 6.74033C167.124 6.71823 168.015 6.94659 168.789 7.41805V13.5175C167.949 13.0166 166.977 12.7735 165.997 12.8103C164.494 12.8103 163.338 13.267 162.527 14.1805C161.724 15.0939 161.319 16.5083 161.319 18.4236V23.6096H154.409V7.11602H161.172V12.3536C161.547 10.4383 162.152 9.02394 162.991 8.1105C163.816 7.20442 164.988 6.7035 166.21 6.74033H166.225ZM184.833 3.30755V10.6593C183.706 7.80111 181.496 6.37201 178.21 6.37201C176.708 6.34991 175.227 6.7477 173.938 7.52855C172.686 8.30939 171.676 9.42173 171.036 10.7477C170.336 12.1989 169.989 13.7901 170.041 15.3959C170.012 16.9503 170.336 18.4825 170.984 19.8969C171.573 21.1713 172.516 22.2615 173.695 23.0276C174.918 23.8011 176.339 24.1989 177.783 24.1694C179.323 24.2136 180.84 23.8379 182.174 23.0718C183.382 22.3278 184.317 21.2155 184.84 19.8969V23.6022H191.75V3.30755H184.84H184.833ZM183.816 17.8858C183.05 18.593 182.034 18.954 180.995 18.895C179.978 18.9466 178.984 18.5783 178.233 17.8858C177.525 17.2007 177.142 16.2431 177.179 15.256C177.142 14.2762 177.518 13.3333 178.225 12.6483C179.853 11.3223 182.188 11.3223 183.816 12.6483C184.524 13.3112 184.907 14.2468 184.877 15.2192C184.914 16.2136 184.531 17.186 183.816 17.8858ZM88.1626 5.78269C88.1626 7.49171 86.623 8.87661 84.7224 8.87661C82.8219 8.87661 81.2823 7.49171 81.2823 5.78269C81.2823 4.07367 82.8219 2.68877 84.7224 2.68877C86.623 2.68877 88.1626 4.07367 88.1626 5.78269ZM88.1626 11.0055V23.698H81.2749V11.0055C83.4775 11.9337 85.96 11.9337 88.1626 11.0055Z" fill="black"/>
</svg>
